<?xml version="1.0" encoding="utf-8"?>
<!-- Generator: Adobe Illustrator 25.2.1, SVG Export Plug-In . SVG Version: 6.00 Build 0)  -->
<svg version="1.1" id="Layer_1" xmlns="http://www.w3.org/2000/svg" xmlns:xlink="http://www.w3.org/1999/xlink" x="0px" y="0px"
	 viewBox="0 0 100 100" style="enable-background:new 0 0 100 100;" xml:space="preserve">
<style type="text/css">
	.st0{fill-rule:evenodd;}
</style>
<g>
	<g>
		<path class="st0" d="M0,50C0,22.43,22.43,0,50,0c27.57,0,50,22.43,50,50s-22.43,50-50,50C22.43,100,0,77.57,0,50z M1.02,50
			c0,27.01,21.97,48.98,48.98,48.98S98.98,77.01,98.98,50S77.01,1.02,50,1.02S1.02,22.99,1.02,50z"/>
	</g>
	<g>
		<g>
			<circle class="st0" cx="63.7" cy="50" r="2.88"/>
		</g>
		<g>
			<circle class="st0" cx="55.53" cy="50" r="2.88"/>
		</g>
		<g>
			<circle class="st0" cx="47.36" cy="50" r="2.88"/>
		</g>
		<g>
			<g>
				<path class="st0" d="M41.11,57.13c0.35,0,0.7-0.13,0.96-0.4c0.53-0.53,0.53-1.39,0-1.93l-4.8-4.8l4.8-4.8
					c0.53-0.53,0.53-1.39,0-1.93c-0.53-0.53-1.39-0.53-1.93,0L33.42,50l6.73,6.73C40.42,57,40.77,57.13,41.11,57.13z"/>
			</g>
		</g>
	</g>
</g>
</svg>
