<svg id="Capa_1" enable-background="new 0 0 511.947 511.947" height="512" viewBox="0 0 511.947 511.947" width="512" xmlns="http://www.w3.org/2000/svg"><path d="m278.907 0h-45.532c-25.235 0-49.271 10.051-67.678 28.301-18.549 18.39-28.764 42.59-28.764 68.116l-.335 100.354c-.014 4.143 3.333 7.512 7.475 7.525h.025c4.131 0 7.486-3.342 7.5-7.475l.193-57.701h137.093c9.734.143 9.729-15.144 0-15h-25.598v-48.576c0-4.143-3.357-7.5-7.5-7.5s-7.5 3.357-7.5 7.5v48.576h-96.445l.092-27.678c0-44.146 37.296-81.442 81.441-81.442h14.911v24.731c0 4.143 3.357 7.5 7.5 7.5s7.5-3.357 7.5-7.5v-24.731h15.621c44.907 0 81.441 36.535 81.441 81.442v27.678h-35.651c-9.734-.143-9.729 15.144 0 15h35.651v131.938c0 43.117-33.793 78.459-76.211 80.81v-26.368c0-15.163-12.337-27.5-27.5-27.5s-27.5 12.337-27.5 27.5v26.372c-42.966-2.323-77.204-37.678-77.204-80.814v-37.426c0-4.143-3.357-7.5-7.5-7.5s-7.5 3.357-7.5 7.5v37.426c0 51.406 40.962 93.495 92.204 95.835v51.715l-25.054-25.054c-10.723-10.723-28.17-10.722-38.893.001-10.721 10.722-10.721 28.169 0 38.892l71.5 71.5c10.237 10.667 28.656 10.667 38.893-.001l27.875-27.876c2.929-2.929 2.929-7.678-.001-10.606-2.928-2.928-7.677-2.929-10.606.001l-27.875 27.875c-4.651 4.849-13.027 4.849-17.678 0l-71.5-71.499c-4.874-4.874-4.874-12.806 0-17.679 4.652-4.85 13.026-4.85 17.678 0l37.749 37.75c4.525 4.766 13.039 1.155 12.912-5.411v-111c0-6.893 5.607-12.5 12.5-12.5s12.5 5.607 12.5 12.5v110c-.127 6.567 8.386 10.177 12.911 5.411l36.75-36.75c4.873-4.875 12.805-4.874 17.678-.001 4.874 4.874 4.874 12.806 0 17.679l-18.875 18.875c-2.929 2.93-2.929 7.678 0 10.607 2.93 2.928 7.677 2.928 10.607 0l18.876-18.877c10.721-10.722 10.721-28.169 0-38.892-10.723-10.723-28.17-10.723-38.893 0l-24.054 24.054v-50.713c23.958-1.096 46.278-10.931 63.263-27.977 18.022-18.088 27.948-42.188 27.948-67.859v-174.616c.001-53.178-43.262-96.442-96.44-96.442z"/></svg>