<svg height="512pt" viewBox="0 -20 512 512" width="512pt" xmlns="http://www.w3.org/2000/svg"><path d="m465 81.433594v-21.433594c0-33.085938-26.914062-60-60-60h-345c-33.085938 0-60 26.914062-60 60v352c0 33.085938 26.914062 60 60 60h392c33.085938 0 60-26.914062 60-60v-272c0-28.617188-20.148438-52.609375-47-58.566406zm-40-21.433594v20h-90v-20c0-7.011719-1.21875-13.738281-3.441406-20h73.441406c11.027344 0 20 8.972656 20 20zm-150-20c11.027344 0 20 8.972656 20 20v20h-91v-20c0-7.011719-1.21875-13.738281-3.441406-20zm197 372c0 11.027344-8.972656 20-20 20h-392c-11.027344 0-20-8.972656-20-20v-352c0-11.027344 8.972656-20 20-20h84c11.027344 0 20 8.972656 20 20v60h288c11.027344 0 20 8.972656 20 20zm0 0"/></svg>